<?xml version="1.0" standalone="no"?>
<!DOCTYPE svg PUBLIC "-//W3C//DTD SVG 20010904//EN"
 "http://www.w3.org/TR/2001/REC-SVG-20010904/DTD/svg10.dtd">
<svg version="1.0" xmlns="http://www.w3.org/2000/svg"
 width="512.000000pt" height="512.000000pt" viewBox="0 0 512.000000 512.000000"
 preserveAspectRatio="xMidYMid meet">
<metadata>
Created by potrace 1.14, written by Peter Selinger 2001-2017
</metadata>
<g transform="translate(0.000000,512.000000) scale(0.100000,-0.100000)"
fill="#000000" stroke="none">
<path d="M2379 5116 c-2 -2 -40 -6 -83 -10 -44 -4 -82 -8 -85 -10 -3 -2 -31
-7 -61 -11 -30 -3 -75 -11 -100 -17 -25 -5 -56 -12 -70 -14 -48 -10 -197 -54
-286 -85 -398 -140 -788 -408 -1064 -729 -64 -74 -76 -89 -143 -180 -208 -280
-367 -643 -436 -995 -40 -200 -46 -267 -45 -515 0 -184 3 -241 19 -345 3 -16
7 -43 9 -60 37 -265 165 -623 307 -860 10 -16 27 -46 38 -65 19 -36 131 -195
166 -239 246 -301 506 -518 820 -685 228 -122 538 -225 781 -261 22 -4 50 -8
64 -11 103 -19 473 -26 600 -12 147 17 153 18 250 38 30 6 66 13 80 16 111 21
368 110 505 175 657 311 1148 878 1364 1576 18 56 34 113 37 128 3 15 11 55
19 89 36 155 50 297 50 521 0 193 -3 251 -16 330 -4 28 -10 66 -13 85 -2 19
-9 58 -15 85 -6 28 -13 61 -15 75 -31 156 -115 389 -206 572 -335 671 -954
1167 -1680 1344 -58 14 -116 28 -130 30 -70 11 -86 14 -195 30 -44 6 -460 15
-466 10z m431 -1300 c396 -85 714 -330 895 -686 39 -78 95 -240 109 -315 3
-16 8 -43 12 -60 10 -50 13 -307 4 -355 -5 -25 -11 -64 -15 -87 -11 -74 -53
-201 -98 -297 -175 -368 -513 -633 -909 -711 -114 -23 -329 -27 -448 -8 -297
46 -591 213 -783 444 -90 108 -209 320 -232 414 -1 6 -5 17 -8 25 -3 8 -9 29
-13 45 -4 17 -8 35 -10 40 -20 77 -32 211 -29 330 4 205 38 343 129 530 186
379 548 641 975 704 86 13 336 5 421 -13z"/>
<path d="M2395 3176 c-118 -32 -199 -79 -285 -166 -123 -124 -180 -254 -185
-425 -6 -189 53 -344 179 -470 124 -124 263 -186 431 -191 185 -6 341 54 469
180 125 123 185 258 192 431 7 188 -53 341 -184 473 -96 96 -178 142 -322 179
-8 2 -60 6 -115 8 -81 3 -116 -1 -180 -19z m302 -328 c119 -58 184 -170 179
-305 -4 -118 -73 -220 -181 -273 -71 -34 -198 -34 -270 0 -62 30 -125 93 -155
156 -34 69 -34 198 -1 266 39 81 106 141 191 171 63 23 174 16 237 -15z"/>
</g>
</svg>
